<svg width="360" height="360" viewBox="0 0 360 360" fill="none" xmlns="http://www.w3.org/2000/svg">
<path fill-rule="evenodd" clip-rule="evenodd" d="M180 360C279.411 360 360 279.411 360 180C360 80.5887 279.411 0 180 0C80.5887 0 0 80.5887 0 180C0 279.411 80.5887 360 180 360ZM180 322C258.424 322 322 258.424 322 180C322 101.576 258.424 38 180 38C101.576 38 38 101.576 38 180C38 258.424 101.576 322 180 322Z" fill="#D9D9D9"/>
<path fill-rule="evenodd" clip-rule="evenodd" d="M235.225 8.63021C217.823 3.02667 199.265 0.00012207 180 0.00012207C154.357 0.00012207 129.967 5.36226 107.889 15.0264C78.1979 29.0296 74.1041 45.1015 90.4796 69.7668C114.907 49.9052 146.063 38.0001 180 38.0001C213.578 38.0001 244.434 49.6549 268.744 69.1399C287.123 41.0222 278.528 24.1319 235.225 8.63021Z" fill="#9C9FEF"/>
</svg>
